HIERARCHY
ROOT hip
{
	OFFSET 0.000000 0.000000 0.000000
	CHANNELS 6 Xposition Yposition Zposition Zrotation Yrotation Xrotation 
	JOINT lhipjoint
	{
		OFFSET 0.000000 0.000000 0.000000
		CHANNELS 3 Zrotation Yrotation Xrotation
		JOINT lfemur
		{
			OFFSET 1.363060 -1.794630 0.839290
			CHANNELS 3 Zrotation Yrotation Xrotation
			JOINT ltibia
			{
				OFFSET 2.448110 -6.726130 0.000000
				CHANNELS 3 Zrotation Yrotation Xrotation
				JOINT lfoot
				{
					OFFSET 2.562200 -7.039590 0.000000
					CHANNELS 3 Zrotation Yrotation Xrotation
					JOINT ltoes
					{
						OFFSET 0.157640 -0.433110 2.322550
						CHANNELS 3 Zrotation Yrotation Xrotation
						End Site
						{
							OFFSET 0.000000 0.000000 0.000000
						}
					}
				}
			}
		}
	}
	JOINT rhipjoint
	{
		OFFSET 0.000000 0.000000 0.000000
		CHANNELS 3 Zrotation Yrotation Xrotation
		JOINT rfemur
		{
			OFFSET -1.305520 -1.794630 0.839290
			CHANNELS 3 Zrotation Yrotation Xrotation
			JOINT rtibia
			{
				OFFSET -2.542530 -6.985550 0.000000
				CHANNELS 3 Zrotation Yrotation Xrotation
				JOINT rfoot
				{
					OFFSET -2.568260 -7.056230 0.000000
					CHANNELS 3 Zrotation Yrotation Xrotation
					JOINT rtoes
					{
						OFFSET -0.164730 -0.452590 2.363150
						CHANNELS 3 Zrotation Yrotation Xrotation
						End Site
						{
							OFFSET 0.000000 0.000000 0.000000
						}
					}
				}
			}
		}
	}
	JOINT lowerback
	{
		OFFSET 0.000000 0.000000 0.000000
		CHANNELS 3 Zrotation Yrotation Xrotation
		JOINT upperback
		{
			OFFSET 0.028270 2.035590 -0.193380
			CHANNELS 3 Zrotation Yrotation Xrotation
			JOINT thorax
			{
				OFFSET 0.056720 2.048850 -0.042750
				CHANNELS 3 Zrotation Yrotation Xrotation
				JOINT lowerneck
				{
					OFFSET 0.000000 0.000000 0.000000
					CHANNELS 3 Zrotation Yrotation Xrotation
					JOINT upperneck
					{
						OFFSET -0.054170 1.746240 0.172020
						CHANNELS 3 Zrotation Yrotation Xrotation
						JOINT head
						{
							OFFSET 0.104070 1.761360 -0.123970
							CHANNELS 3 Zrotation Yrotation Xrotation
							End Site
							{
								OFFSET 0.000000 0.000000 0.000000
							}
						}
					}
				}
				JOINT lclavicle
				{
					OFFSET 0.000000 0.000000 0.000000
					CHANNELS 3 Zrotation Yrotation Xrotation
					JOINT lhumerus
					{
						OFFSET 3.362410 1.200890 -0.311210
						CHANNELS 3 Zrotation Yrotation Xrotation
						JOINT lradius
						{
							OFFSET 4.983000 -0.000000 -0.000000
							CHANNELS 3 Zrotation Yrotation Xrotation
							JOINT lwrist
							{
								OFFSET 3.483560 -0.000000 -0.000000
								CHANNELS 3 Zrotation Yrotation Xrotation
								JOINT lhand
								{
									OFFSET 0.000000 0.000000 0.000000
									CHANNELS 3 Zrotation Yrotation Xrotation
									JOINT lfingers
									{
										OFFSET 0.715260 -0.000000 -0.000000
										CHANNELS 3 Zrotation Yrotation Xrotation
										End Site
										{
											OFFSET 0.000000 0.000000 0.000000
										}
									}
								}
								JOINT lthumb
								{
									OFFSET 0.000000 0.000000 0.000000
									CHANNELS 3 Zrotation Yrotation Xrotation
									End Site
									{
										OFFSET 0.000000 0.000000 0.000000
									}
								}
							}
						}
					}
				}
				JOINT rclavicle
				{
					OFFSET 0.000000 0.000000 0.000000
					CHANNELS 3 Zrotation Yrotation Xrotation
					JOINT rhumerus
					{
						OFFSET -3.136600 1.374050 -0.404650
						CHANNELS 3 Zrotation Yrotation Xrotation
						JOINT rradius
						{
							OFFSET -5.241900 -0.000000 -0.000000
							CHANNELS 3 Zrotation Yrotation Xrotation
							JOINT rwrist
							{
								OFFSET -3.444170 -0.000000 -0.000000
								CHANNELS 3 Zrotation Yrotation Xrotation
								JOINT rhand
								{
									OFFSET 0.000000 0.000000 0.000000
									CHANNELS 3 Zrotation Yrotation Xrotation
									JOINT rfingers
									{
										OFFSET -0.622530 -0.000000 -0.000000
										CHANNELS 3 Zrotation Yrotation Xrotation
										End Site
										{
											OFFSET 0.000000 0.000000 0.000000
										}
									}
								}
								JOINT rthumb
								{
									OFFSET 0.000000 0.000000 0.000000
									CHANNELS 3 Zrotation Yrotation Xrotation
									End Site
									{
										OFFSET 0.000000 0.000000 0.000000
									}
								}
							}
						}
					}
				}
			}
		}
	}
}
MOTION
Frames: 7
Frame Time: 0.008333
-16.575362 17.433163 0.044699 -44.079816 -83.607711 47.387730 -4.178331 -3.436168 -1.036708 -10.845918 1.863180 -18.052165 3.364421 9.583118 27.498373 -0.519135 -15.914536 1.884918 0.023400 0.987100 2.713400 2.508175 3.661406 -2.916750 20.464655 -6.048078 -7.783224 -4.371414 -12.293497 31.373218 -0.305920 16.973633 -5.786707 -0.317600 3.622400 -10.016700 -5.498799 7.467119 0.893900 -2.277423 10.687385 -3.403536 -9.863366 4.690528 11.305634 -0.094972 -11.791908 -11.354801 9.574438 -17.329018 9.164280 0.942600 -8.292600 1.813100 -7.193057 -4.643195 3.926957 -67.269219 -2.518591 23.085391 9.218730 -20.957583 -2.307792 0.054674 1.030599 20.918783 20.468865 -5.616193 -2.516700 -7.125000 0.000000 0.000000 -4.384100 22.879800 2.341300 10.521354 3.471620 0.570727 -12.232495 39.475216 -18.515431 -14.158855 36.259103 -5.068827 0.106814 0.277778 -24.334593 12.128322 0.581026 0.077400 7.125000 0.000000 0.000000 28.987700 -28.727300 13.089200 
-16.588262 17.434686 0.044341 -42.561477 -83.496091 45.879098 -4.220422 -3.458796 -1.037169 -10.854560 1.843675 -17.984386 3.355862 9.570702 27.444772 -0.531431 -16.038411 1.956147 0.024700 1.013600 2.786200 2.463393 3.627411 -2.907385 20.495457 -5.884243 -7.793735 -4.389865 -12.306773 31.441571 -0.305735 16.951821 -5.734475 -0.318500 3.627500 -10.030900 -5.579423 7.431713 0.882627 -2.271049 10.652767 -3.400619 -9.845617 4.669175 11.307538 -0.102376 -11.795405 -11.303025 9.665181 -17.355760 9.157831 0.974800 -8.306700 1.808600 -7.196871 -4.659936 3.936059 -67.192792 -2.318784 22.824675 9.128599 -20.858504 -2.286627 0.052033 1.024843 21.038422 20.438506 -5.580444 -2.496700 -7.125000 0.000000 0.000000 -4.404800 22.927400 2.347600 10.529557 3.473317 0.560044 -12.054817 39.298249 -18.048303 -14.427428 36.493080 -5.175883 0.098085 0.293030 -24.170495 12.054759 0.656121 0.088800 7.125000 0.000000 0.000000 28.924100 -28.681100 13.089200 
-16.600175 17.436835 0.043177 -40.822626 -83.387460 44.132222 -4.269312 -3.483550 -1.035550 -10.893762 1.896729 -17.943500 3.344895 9.555788 27.379371 -0.550338 -16.221397 2.086882 0.023600 0.992400 2.728000 2.412534 3.597989 -2.902377 20.503921 -5.729634 -7.783405 -4.409927 -12.327721 31.530659 -0.307903 16.904559 -5.702165 -0.321800 3.646200 -10.083300 -5.689228 7.398814 0.885647 -2.264910 10.623849 -3.391729 -9.816366 4.649494 11.332487 -0.109010 -11.817031 -11.323715 9.740792 -17.405382 9.196111 0.993000 -8.327700 1.836400 -7.200258 -4.671536 3.943519 -67.118987 -2.206771 22.446752 8.973208 -20.680853 -2.248258 0.055247 1.016891 21.264378 20.368850 -5.623562 -2.500300 -7.125000 0.000000 0.000000 -4.457500 22.893800 2.379300 10.539283 3.477945 0.546380 -11.865778 39.096332 -17.663749 -14.726492 36.740497 -5.298368 0.087681 0.314443 -23.985460 11.682070 0.711866 0.092200 7.125000 0.000000 0.000000 28.663600 -28.676500 12.941100 
-16.611373 17.439523 0.041654 -39.400050 -83.295190 42.702382 -4.309577 -3.502377 -1.033339 -10.923566 1.897441 -17.868740 3.333067 9.540448 27.308631 -0.562267 -16.339579 2.172859 0.026800 1.056100 2.903100 2.371471 3.573775 -2.895523 20.502896 -5.565458 -7.772467 -4.433348 -12.353087 31.637671 -0.307574 16.855789 -5.617934 -0.321400 3.643800 -10.076700 -5.782658 7.379453 0.897032 -2.264469 10.607655 -3.389238 -9.817174 4.638385 11.330828 -0.072954 -11.844215 -11.349620 9.799168 -17.463499 9.260486 0.995800 -8.351200 1.870300 -7.206098 -4.682746 3.949383 -67.011621 -2.056775 22.126412 8.845523 -20.529884 -2.214871 0.052442 1.007585 21.441448 20.256112 -5.556305 -2.456200 -7.125000 0.000000 0.000000 -4.539200 22.983300 2.413800 10.548787 3.490116 0.529372 -11.649313 38.910872 -17.368583 -15.000342 36.951943 -5.409666 0.078841 0.338533 -23.767736 11.080077 0.836827 0.106200 7.125000 0.000000 0.000000 28.226200 -28.624100 12.729500 
-16.621137 17.441135 0.039414 -38.221665 -83.182509 41.521836 -4.344136 -3.516921 -1.030599 -10.923061 1.901078 -17.813491 3.322191 9.526718 27.245772 -0.574377 -16.445055 2.292283 0.030600 1.128700 3.103100 2.337787 3.555232 -2.890669 20.532317 -5.380863 -7.718731 -4.457821 -12.383765 31.756233 -0.315468 16.758309 -5.609246 -0.328800 3.685600 -10.193700 -5.845415 7.362452 0.910592 -2.262517 10.591296 -3.386949 -9.827834 4.629578 11.330091 -0.002054 -11.865581 -11.374229 9.845887 -17.511524 9.304641 0.989300 -8.371100 1.889300 -7.211629 -4.691052 3.954703 -66.882759 -1.927429 21.915992 8.736937 -20.397590 -2.184191 0.041940 0.998054 21.456297 20.116261 -5.377154 -2.367300 -7.125000 0.000000 0.000000 -4.638500 23.194900 2.444400 10.560743 3.504096 0.514467 -11.454191 38.719915 -17.119144 -15.279029 37.166183 -5.524359 0.070201 0.362669 -23.630612 10.461620 0.953365 0.116400 7.125000 0.000000 0.000000 27.777700 -28.578300 12.507900 
-16.629915 17.441673 0.037354 -36.814673 -83.077306 40.099907 -4.384632 -3.529747 -1.024079 -10.951646 1.868635 -17.747676 3.312827 9.513179 27.185405 -0.584987 -16.547818 2.375348 0.032000 1.155400 3.176400 2.302035 3.548808 -2.892699 20.516388 -5.262544 -7.617813 -4.477611 -12.420887 31.877430 -0.321522 16.701024 -5.620286 -0.334500 3.717000 -10.281900 -5.930283 7.339608 0.936657 -2.257896 10.567395 -3.386890 -9.817325 4.615931 11.310224 0.010078 -11.895990 -11.394156 9.908336 -17.573531 9.370219 0.997300 -8.396300 1.927000 -7.213329 -4.704897 3.958334 -66.823282 -1.808466 21.586245 8.596080 -20.226048 -2.147915 0.035250 0.990985 21.612229 20.038408 -5.224747 -2.298100 -7.125000 0.000000 0.000000 -4.692700 23.371500 2.454000 10.568390 3.519570 0.499758 -11.273894 38.497969 -16.813855 -15.573379 37.394812 -5.648001 0.060309 0.384663 -23.573741 10.039396 1.005408 0.116300 7.125000 0.000000 0.000000 27.480100 -28.576700 12.340200 
-16.638067 17.442300 0.033771 -35.831270 -82.994949 39.105783 -4.412849 -3.541568 -1.018507 -10.973002 1.937599 -17.714583 3.302233 9.501530 27.128602 -0.598200 -16.669744 2.463880 0.031800 1.151000 3.164300 2.278464 3.548555 -2.895969 20.508565 -5.140774 -7.504902 -4.497903 -12.460681 32.004248 -0.328598 16.636443 -5.634034 -0.352200 3.812900 -10.550800 -6.004474 7.336369 0.956581 -2.256592 10.568595 -3.384878 -9.809116 4.615071 11.306181 0.031564 -11.931247 -11.446275 9.979645 -17.645148 9.443420 1.003200 -8.424700 1.974700 -7.217697 -4.716187 3.961174 -66.728941 -1.673865 21.313988 8.492239 -20.099427 -2.120481 0.025209 0.982718 21.751826 19.927135 -5.009755 -2.201700 -7.125000 0.000000 0.000000 -4.770900 23.618400 2.468100 10.578287 3.534915 0.486475 -11.147242 38.259064 -16.521267 -15.850259 37.609634 -5.767387 0.049959 0.404413 -23.668831 9.756143 0.984536 0.105700 7.125000 0.000000 0.000000 27.296100 -28.630700 12.196300 
